<?xml version="1.0" standalone="no"?>
<!DOCTYPE svg PUBLIC "-//W3C//DTD SVG 20010904//EN"
 "http://www.w3.org/TR/2001/REC-SVG-20010904/DTD/svg10.dtd">
<svg version="1.0" xmlns="http://www.w3.org/2000/svg"
 width="960.000000pt" height="960.000000pt" viewBox="0 0 960.000000 960.000000"
 preserveAspectRatio="xMidYMid meet">
<metadata>
Created by potrace 1.13, written by Peter Selinger 2001-2015
</metadata>
<g transform="translate(0.000000,960.000000) scale(0.100000,-0.100000)"
fill="#FFFFFF" stroke="none">
<path d="M4470 8924 c-417 -37 -717 -95 -1043 -205 -1202 -404 -2152 -1354
-2556 -2556 -89 -264 -153 -552 -188 -848 -25 -211 -25 -709 0 -920 112 -940
504 -1752 1167 -2415 594 -594 1312 -973 2130 -1124 346 -64 198 -60 2618 -63
l2203 -4 -4 2203 c-3 2420 1 2272 -63 2618 -151 818 -530 1536 -1124 2130
-660 660 -1479 1057 -2405 1165 -133 16 -628 28 -735 19z"/>
</g>
<g transform="translate(0.000000,960.000000) scale(0.100000,-0.100000)"
fill="#3D4459" stroke="none">
<path d="M4079 7195 c-192 -31 -337 -78 -511 -167 -164 -83 -274 -164 -419
-308 -141 -140 -238 -275 -319 -444 -239 -496 -222 -1099 44 -1566 38 -68 205
-475 586 -1435 293 -737 541 -1354 551 -1371 24 -40 96 -106 140 -131 52 -28
229 -26 284 4 55 29 110 87 137 142 30 62 37 199 14 268 -9 26 -165 423 -347
881 -182 458 -329 836 -326 839 3 3 46 -2 94 -12 117 -23 412 -31 540 -15 164
20 353 75 509 146 7 3 260 -335 584 -778 315 -431 591 -802 614 -826 71 -75
116 -96 222 -100 82 -4 98 -2 146 20 72 33 108 66 143 130 28 50 30 60 30 163
0 100 -2 114 -26 155 -14 25 -285 400 -602 833 -317 434 -577 792 -577 795 0
4 19 30 42 57 112 135 229 347 288 522 50 150 90 381 90 518 0 25 4 45 8 45 5
0 348 -277 763 -616 415 -339 774 -626 799 -637 67 -31 206 -31 275 1 115 53
175 151 175 286 0 89 -20 151 -67 205 -26 31 -1803 1491 -2373 1949 -43 35
-85 59 -126 72 -42 12 -91 41 -151 84 -169 125 -402 228 -628 276 -130 28
-474 37 -606 15z"/>
</g>
</svg>
